<svg xmlns="http://www.w3.org/2000/svg" xmlns:xlink="http://www.w3.org/1999/xlink" viewBox="0 0 295.83 279.37"><defs><style>.cls-1{fill:#2e3440;}.cls-2{fill:#3b4252;}.cls-3{fill:#434c5e;}.cls-4,.cls-5{stroke:#d8dee9;stroke-miterlimit:10;stroke-width:3px;}.cls-4{fill:url(#linear-gradient);}.cls-5{fill:url(#linear-gradient-2);}</style><linearGradient id="linear-gradient" x1="176.77" y1="194.99" x2="94.05" y2="71.41" gradientUnits="userSpaceOnUse"><stop offset="0" stop-color="#5e81ac"/><stop offset="1" stop-color="#88c0d0"/></linearGradient><linearGradient id="linear-gradient-2" x1="174.13" y1="196.75" x2="91.41" y2="73.18" xlink:href="#linear-gradient"/></defs><title>Asset 1</title><g id="Layer_2" data-name="Layer 2"><g id="Layer_1-2" data-name="Layer 1"><path class="cls-1" d="M0,147.9v55.88c-.07,0,0,0,0,1.64,0,39.44,66.22,74,147.9,74s147.9-34.51,147.9-74V147.9Z"/><path class="cls-1" d="M295.83,147.9c0,36.31-66.21,65.74-147.9,65.74S0,184.21,0,147.9s66.22-65.73,147.9-65.73S295.83,111.6,295.83,147.9Z"/><path class="cls-2" d="M1.06,205.42c-.76,1.64-1,4.93-1,8.22,0,36.15,66.22,65.73,147.9,65.73s147.9-29.58,147.9-65.73c0-3.29-.27-6.58-1-8.22-9.11,31.23-71.47,57.52-146.89,57.52S10.16,236.65,1.06,205.42Z"/><path class="cls-2" d="M0,65.73v55.88c-.07,0,0,0,0,1.64,0,39.44,66.22,73.95,147.9,73.95s147.9-34.51,147.9-73.95V65.73Z"/><path class="cls-3" d="M1.06,123.25c-.76,1.65-1,4.93-1,8.22,0,36.15,66.22,65.73,147.9,65.73s147.9-29.58,147.9-65.73c0-3.29-.27-6.57-1-8.22-9.11,31.23-71.47,57.52-146.89,57.52S10.16,154.48,1.06,123.25Z"/><path class="cls-1" d="M147.93,147.9V279.37c81.69,0,147.9-33.11,147.9-74V147.9Z"/><path class="cls-2" d="M294.82,205.42c-9.11,32.42-71.47,57.52-146.89,57.52v16.43c81.69,0,147.9-29.43,147.9-65.73A30.76,30.76,0,0,0,294.82,205.42Z"/><path class="cls-1" d="M147.93,82.17V213.64c81.69,0,147.9-29.44,147.9-65.74S229.62,82.17,147.93,82.17Z"/><path class="cls-2" d="M147.93,65.73V197.2c81.69,0,147.9-33.11,147.9-73.95V65.73Z"/><path class="cls-3" d="M294.82,123.25c-9.11,32.43-71.47,57.52-146.89,57.52V197.2c81.69,0,147.9-29.43,147.9-65.73A30.81,30.81,0,0,0,294.82,123.25Z"/><path class="cls-1" d="M295.83,65.73c0,36.31-66.21,65.74-147.9,65.74S0,102,0,65.73,66.25,0,147.93,0,295.83,29.43,295.83,65.73Z"/><path class="cls-4" d="M204.28,98.93v.48c0,26.88-22.32,49.2-49.2,49.2H117.16v77H95.56V127h59.52a27.6,27.6,0,0,0,27.6-27.6v-.48a27.46,27.46,0,0,0-27.6-27.61H95.56V49.72h59.52A49.42,49.42,0,0,1,204.28,98.93Z"/><polygon class="cls-5" points="171.4 169.73 203.08 225.65 178.12 225.65 146.92 170.45 171.4 169.73"/></g></g></svg>