<?xml version="1.0" encoding="UTF-8" standalone="no"?>
<!-- Generator: Adobe Illustrator 18.1.1, SVG Export Plug-In . SVG Version: 6.00 Build 0)  -->

<svg
   version="1.1"
   id="Capa_1"
   x="0px"
   y="0px"
   viewBox="0 0 237.64 237.64"
   style="enable-background:new 0 0 237.64 237.64;"
   xml:space="preserve"
   sodipodi:docname="RayDbLogoMain.svg"
   inkscape:version="1.1 (c68e22c387, 2021-05-23)"
   xmlns:inkscape="http://www.inkscape.org/namespaces/inkscape"
   xmlns:sodipodi="http://sodipodi.sourceforge.net/DTD/sodipodi-0.dtd"
   xmlns="http://www.w3.org/2000/svg"
   xmlns:svg="http://www.w3.org/2000/svg"><defs
   id="defs39" /><sodipodi:namedview
   id="namedview37"
   pagecolor="#ffffff"
   bordercolor="#666666"
   borderopacity="1.0"
   inkscape:pageshadow="2"
   inkscape:pageopacity="0.0"
   inkscape:pagecheckerboard="0"
   showgrid="false"
   inkscape:zoom="1.754102"
   inkscape:cx="118.86424"
   inkscape:cy="118.57919"
   inkscape:window-width="1366"
   inkscape:window-height="706"
   inkscape:window-x="-8"
   inkscape:window-y="-8"
   inkscape:window-maximized="1"
   inkscape:current-layer="g4" />
<g
   id="g4">
	<path
   id="path2"
   style="fill:#010002;"
   d="M 121.82422 0 C 118.96659 -0.02925 116.08492 2.2642656 113.85742 6.8847656 L 7.953125 226.5293 C 5.723125 231.1523 5.6597031 234.60231 7.3457031 236.44531 C 11.256703 240.72031 23.270969 232.54053 30.667969 227.39453 L 87.742188 187.66602 A 54.443813 54.443813 0 0 1 66.130859 144.51758 A 54.443813 54.443813 0 0 1 120.57422 90.074219 A 54.443813 54.443813 0 0 1 175.01758 144.51758 A 54.443813 54.443813 0 0 1 152.5 188.41016 L 206.9043 227.13867 C 214.2473 232.35967 226.20708 240.61142 230.20508 236.35742 C 231.94508 234.50842 231.95622 231.02833 229.82422 226.36133 L 129.64844 7.046875 C 127.51644 2.380375 124.68184 0.02925 121.82422 0 z " />
</g>
<g
   id="g6">
</g>
<g
   id="g8">
</g>
<g
   id="g10">
</g>
<g
   id="g12">
</g>
<g
   id="g14">
</g>
<g
   id="g16">
</g>
<g
   id="g18">
</g>
<g
   id="g20">
</g>
<g
   id="g22">
</g>
<g
   id="g24">
</g>
<g
   id="g26">
</g>
<g
   id="g28">
</g>
<g
   id="g30">
</g>
<g
   id="g32">
</g>
<g
   id="g34">
</g>
</svg>
