<?xml version="1.0" encoding="UTF-8" standalone="no"?>
<!-- Generator: Adobe Illustrator 18.1.1, SVG Export Plug-In . SVG Version: 6.00 Build 0)  -->

<svg
   version="1.1"
   id="Capa_1"
   x="0px"
   y="0px"
   viewBox="0 0 237.64 237.64"
   style="enable-background:new 0 0 237.64 237.64;"
   xml:space="preserve"
   sodipodi:docname="RayDbLogoMaster.svg"
   inkscape:version="1.1 (c68e22c387, 2021-05-23)"
   xmlns:inkscape="http://www.inkscape.org/namespaces/inkscape"
   xmlns:sodipodi="http://sodipodi.sourceforge.net/DTD/sodipodi-0.dtd"
   xmlns="http://www.w3.org/2000/svg"
   xmlns:svg="http://www.w3.org/2000/svg"><defs
   id="defs39"><rect
     x="6.8411072"
     y="3.9906459"
     width="220.05562"
     height="57.009227"
     id="rect9336" /></defs><sodipodi:namedview
   id="namedview37"
   pagecolor="#ffffff"
   bordercolor="#666666"
   borderopacity="1.0"
   inkscape:pageshadow="2"
   inkscape:pageopacity="0.0"
   inkscape:pagecheckerboard="0"
   showgrid="false"
   inkscape:zoom="1.754102"
   inkscape:cx="118.86424"
   inkscape:cy="118.57919"
   inkscape:window-width="1366"
   inkscape:window-height="706"
   inkscape:window-x="-8"
   inkscape:window-y="-8"
   inkscape:window-maximized="1"
   inkscape:current-layer="g4" />
<g
   id="g4">
	
<g
   id="g31500"
   transform="matrix(1.5540767,0,0,1.7313495,-5.3620847,-2.0844813)"><path
     id="path2"
     style="fill:#010002;stroke-width:0.251049"
     d="m 66.494723,2.8502605 c -0.659448,-0.00799 -1.324442,0.618399 -1.838476,1.8803148 L 40.217013,64.71822 c -0.51461,1.262598 -0.529246,2.204839 -0.140173,2.708185 0.902531,1.167555 3.675029,-1.066444 5.382013,-2.47188 L 58.629709,54.104176 A 12.563844,14.86928 0 0 1 53.642524,42.319802 12.563844,14.86928 0 0 1 66.206264,27.450646 12.563844,14.86928 0 0 1 78.770003,42.319802 12.563844,14.86928 0 0 1 73.573685,54.30741 l 12.554728,10.577236 c 1.69452,1.42592 4.45445,3.679575 5.37705,2.517755 0.40154,-0.504985 0.40411,-1.455441 -0.0879,-2.730056 L 68.300296,4.7748494 C 67.8083,3.5003704 67.154167,2.8582491 66.494723,2.8502605 Z" /><path
     id="text18240"
     style="font-style:normal;font-weight:normal;font-size:40px;line-height:1.25;font-family:sans-serif;fill:#000000;fill-opacity:1;stroke:none"
     d="m 131.57383,35.37184 -21.50976,16.38476 -25.689452,-8.42969 8.935546,25.51953 -15.955078,21.82813 27.031244,-0.61328 15.83008,21.91992 7.76953,-25.89648 25.73828,-8.28125 -22.22851,-15.39258 z m -24.45703,19.14843 6.72852,3.6543 c 1.46446,0.79569 2.5508,1.90561 3.25976,3.32812 0.71518,1.41108 0.62563,2.94038 -0.26953,4.58789 l -8.09375,14.89649 c -0.83299,1.53311 -2.02081,2.43524 -3.5625,2.70898 -1.52403,0.26852 -3.08156,-0.0285 -4.67187,-0.89257 l -6.761716,-3.67383 z m 3.68164,6.11133 -9.93164,18.27734 c 1.00682,0.54704 1.74631,0.38515 2.21875,-0.48437 l 8.52344,-15.68555 c 0.46623,-0.85808 0.19627,-1.56038 -0.81055,-2.10742 z m 9.77344,1.19922 6.36719,3.45898 c 1.52166,0.82678 2.6525,1.89406 3.39453,3.20118 0.74824,1.29567 0.70959,2.70489 -0.11719,4.22656 l -1.85547,3.41406 c -0.93867,1.72761 -2.65395,2.37392 -5.14453,1.93945 1.92119,1.75515 2.38879,3.5422 1.40039,5.36133 l -2.5918,4.77149 c -0.88272,1.62463 -2.0786,2.55486 -3.58398,2.78906 -1.48773,0.22897 -2.96327,-0.05587 -4.42773,-0.85156 l -6.8125,-3.70118 z m 3.68164,6.11133 -3.68359,6.77929 c 1.00681,0.54704 1.7463,0.38515 2.21875,-0.48437 l 2.27539,-4.1875 c 0.46622,-0.85808 0.19627,-1.56038 -0.81055,-2.10742 z m -5.13867,9.45703 -4.79297,8.82031 c 1.00682,0.54704 1.74631,0.38515 2.21875,-0.48437 l 3.38477,-6.22852 c 0.46622,-0.85808 0.19627,-1.56038 -0.81055,-2.10742 z" /><text
     xml:space="preserve"
     id="text9334"
     style="font-style:normal;font-weight:normal;font-size:40px;line-height:1.25;font-family:sans-serif;white-space:pre;shape-inside:url(#rect9336);fill:#ff0000;fill-opacity:1;stroke:none"
     transform="translate(0.57009227,9.6915683)"><tspan
       x="6.8417969"
       y="47.677441"
       id="tspan31529"><tspan
         style="font-family:Broadway;-inkscape-font-specification:Broadway"
         id="tspan31527">R     Y</tspan></tspan></text></g></g>
<g
   id="g6">
</g>
<g
   id="g8">
</g>
<g
   id="g10">
</g>
<g
   id="g12">
</g>
<g
   id="g14">
</g>
<g
   id="g16">
</g>
<g
   id="g18">
</g>
<g
   id="g20">
</g>
<g
   id="g22">
</g>
<g
   id="g24">
</g>
<g
   id="g26">
</g>
<g
   id="g28">
</g>
<g
   id="g30">
</g>
<g
   id="g32">
</g>
<g
   id="g34">
</g>
</svg>
